/* XPM */
static char * beton_xpm[] = {
"16 16 5 1",
" 	c None",
".	c #C00000",
"+	c #C05800",
"@	c #800000",
"#	c #800080",
".+..+..+..+@...@",
".#+.#+.#+.+.++.+",
"+.+#+.+..#+#.#+.",
"+..+.#+.+..+.+..",
".+#.+..+#+.#+.+.",
"#+.+#+..+.+.+#.+",
".+.#+.+#.+#..+.+",
"#.+.+..+.+#+#+..",
"+..#+#+#.+..+.+.",
"+.+.+..+..+#+.#+",
".+#..+#.+#.+.+..",
"@+.+.+.+.+.+.#+.",
".+#.+#.+#.#+.+..",
"@.+..+.+.+.+.#+.",
"+.+#+#.+#.#+.+..",
"#.+..+..+.+.#+.+"};
