/* XPM */
static char * bricks_xpm[] = {
"144 16 10 1",
" 	c None",
".	c #C00000",
"+	c #FF0000",
"@	c #800000",
"#	c #000000",
"$	c #400000",
"%	c #C05800",
"&	c #303030",
"*	c #404000",
"=	c #800080",
".+.+..+.+.@#+.....#   $   ##.#$.  $          $#$   $ $                       $  +.+.@   $@$ ..+..+.+.+..+.@#+...+.+.+.+..+@#+....+..+..+.+@#+...",
".%.%.%.%.%@#+%.%.%@        #@&@%@        $$  $#$      $ $                   $   %.&$$       $#@%.%@&&@*@*@@#.@%=%.%.%*.%.%@#+%.%@%.%.%=%.%@#+.%.",
"%.%=%.=%.=@#+.%.=%.%.&$    #+.%.@&@&$$        $&$           $$$$                @&$& $    $ $&.%.@&@#$#$@&$#.@@%.%=%@$$.%=@#+.%..%.%..%.=%@#+%.%",
"=.%..%.%.%@#+=%.%=..%.%@%@@#+.%.%.%.   $&   $$*.$$$       $    $      $         .$$       $  @ %.%.$$&#$$$$#.@#%...%@@%.%@$#+.%=%.=%=%.%..@#+%..",
"%.=%=.%=.%@#+.%..%.%.=.%.%@#+.%..@#$%@@$#$   $$*@      $  $  $ &                &   $$      $$  .&$% $$   $ +&$.%=%.%@   $ #.@.%.%..%.=%@%@#+.%.",
"%.%.%..%..@#+=.%=%=%.%.%..@#+.=%.%$#$&@&@&@ @@.%.& $    &    $$$        $$      $    $       $  %.@  $  $&$ +$*..%.@#$$ $&$ +.%=.=%@$&.@#@$#+=.%",
"..%=.%=%.%@#+%..%..%=.%=%.@#+%.%=.@&@@$$$$$ +%..&$   &  $$  $#&.  $    $       $      $     $   .&$$ &$  $  .$@%.=%.&$$  $  +%.%.%@.%.%$$&  +%.%",
"$$$$$$$$$$$#@$$$$$$$$$$$$$$#@$$$$$$$$#$&$$$ @$$$     $      $##$                 $          $$  $$           $##$$$$$       @$$$$$$$$$      @$$$",
"...@#+....+........@#+....+...+.+.+@#+.....+...+@  $ . @  $@$@.+&     &$$   $  $      $   &     .$$@ $$   $$&@$....@#$@   $$@@$@..+@#+.$  .$...+",
"%.%@#+.%.%.%.%%.%.%@#+%.%%.%.%.%%.%@#+%.%.%.%%.%.% $ $$$   $&$&.$$ $        &$     $        $   %$&@ @$ $ $$@@&.%.%@#.&  $&$&@&.%.%@#+%$*.*@%.%.",
".%.@#+%.%@%.%.@%..%@#+.%.@%.%=%@.%.@#+.%@%.@..*.%. $ $#&$@ &$$@%      $$&$$ $&@ &$            $$.@$$ @&$& &.&@%.%=.@#@@@&$.%@@%.%=.@#+.=%@.%.%=%",
"=.%@#+=..%.=.%..%..@#+=.%.=%...%.=%@#+%...%%.%..%.%@ ..*@%.@%.%.  @$ $#$$##$$#$$#$ $        $ &$%@&$ +.$$.&$$#@@%.%@#+%@$*.@=%.=%.%@#+%.@*.@@%..",
"%.=@#+%.%=%.%=%.=%=@#+%.%.%@%.%=%..@#+.%=%..%.%=.%=@ +%..%.%.=%.*$&   $&$&$@*@%#&$&  $    $&$  $.&@$ +%#$&@@&$#@.%=@#+.&@@&%..%..%=@#+.%.%.%..%=",
"%.%@#+%@%..%..%.%.%@#+%=..%.=%..%=%@#+.%=%=.%=.%..%@ +.%.%=.%..%.    @@$$$%@$$$$%.@$  $ $$&.@ $&.%.@  $@.%@%@#&&..%@#+%.%.@.%.=%.%.@#+=.%.=%=%.%",
".%.@#+...%=.%=.%=.%@#+.%.%.%..%..%.@#+%..%.%.%.=%=.@ +.%=.%.%.%..%$  @&  $$#$@#@.*.$       &$&.%=@%$ @$&#$#$$$.%.%.@#+..%.*.%.%.=%.@#+%..%..%..%",
"$$$$#@$$$$$$$$$$$$$$#@$$$$$$$$$$$$$$#@$$$$$$$$$$$$$$ @$$$$$$$$$$$$$$      $$&$$$$&#$         $$$$##$ @$$$$$##$$$$$$$#@$$$$$$$$$$$$$$#@$$$$$$$$$$"};
