/* XPM */
static const char * bricks_xpm[] = {
"160 16 13 1",
" 	c None",
".	c #C00000",
"+	c #FF0000",
"@	c #800000",
"#	c #000000",
"$	c #C05800",
"%	c #585858",
"&	c #808000",
"*	c #400000",
"=	c #404000",
"-	c #808080",
";	c #303030",
">	c #800080",
".+.+..+.+.@#+.....$%$%&$%%##.#*.$%*%$%&$%%%=%*#*$%$*$*&$%%%=%$-%$%$%$%&$%%%=%*-%$%$%$%&$%%%=%$-%+.+.@%&$*@*=..+..+.+.+..+.@#+...+.+.+.+..+@#+....+..+..+.+@#+...",
".$.$.$.$.$@#+$.$.$@--%-&-$%#@;@$@-&--%-&-**=%*#*--&--%*&*$%=%&-%--&--%-&-$%=*&-%--&--%-&-$%=%&-%$.;**%-&-$%=*#@$.$@;;@=@=@@#+@$>$.$.$=.$.$@#+$.$@$.$.$>$.$@#+.$.",
"$.$>$.>$.>@#+.$.>$.$.;*$%-=#+.$.@;@;**%$%-=%$%*;*$%-$-%$%-=%****%$%-$-%$%-=%$%-$%$%-$-%$%-=%$%-$@;*;$*%$%-*%*;.$.@;@#*#*@;@#+@@$.$>$@**.$>@#+.$..$.$..$.>$@#+$.$",
">.$..$.$.$@#+>$.$>..$.$@$@@#+.$.$.$.%--*;$%=**=.***-%--&-$*=%-%*--%-%-*&-$%=%-%---%-%--&-$%=%-%-.**-%--&-$*=%@%$.$.**-#****=.@#$...$@@$.$@*=+.$>$.>$>$.$..@=+$..",
"$.>$>.$>.$@#+.$..$.$.>.$.$@#+.$..@#*$@@*#*%=$**=@&$-$%-*-%*=$*$;%&$-$%-%-%%=$-$-%&$-$%-%-%%=$-$-;&$-**-%-%%=**$-.;*$$**%-%*=+;*.$>$.$@-%-*%=.@.$.$..$.>$@$@=+.$.",
"$.$.$..$..@#+>.$>$>$.$.$..@#+.>$.$*#*;@;@;@=@@.$.;-*&-$&;$%=&***-%-%&-$&**%=&%-$-%-%&-$&%$%=&%-$*%-%&*$&%$%=&*-$$.@%&*$&*;*=+*=..$.@#-$&*;*=+.$>.>$@*;.@#@*=+>.$",
"..$>.$>$.$@#+$..$..$>.$>$.@#+$.$>.@;@@*****=+$..;*%&%;%%**==*#;.%$*&%%%*-%==%-%*%$%&%%%%-%==%-%%%$%&%%*%-%==*-%%.;**%%*%-*==.*@$.>$.;%%%-*==+$.$.$@.$.$%-;==+$.$",
"***********#@**************#@********#*;***=@***%%%%=*%%%%%=*##*%%%%=%%%%%%=%%%%%%%%=%%%%%%=%%%%%*%%=%%%%%%=**%%**%%=%%%%%%=%*##*****%%%%%%=@*********%%%%%=@***",
"...@#+....+........@#+....+...+.+.+@#+.....+...+@%%*=.%@%$*@*@.+;%%%=$;**$%$*&$*$%%%=$%$%$%$%&$%$%%%=$*$%$;$%&$%.**@=$%$%$%$;@*....@#*@$%$**@@*@..+@#+.$%$.*...+",
"$.$@#+.$.$.$.$$.$.$@#+$.$$.$.$.$$.$@#+$.$.$.$$.$.$$*=***&--*;*;.**$*=%--&---;*&-&-$%=%--&----%&-&-$*=%--&---*%&-$*;@=@--&---@@;.$.$@#.;-&*;*;@;.$.$@#+$-=.=@$.$.",
".$.@#+$.$@$.$.@$..$@#+.$.@$.$>$@.$.@#+.$@$.@..=.$.%*=*#;*@&;**@$-%%%=$**;**$*;@%-%%%=$-%$%&$%-$%;*%%=$-%$%&$%-**.@**=@;%;%;.;@$.$>.@#@@@;*.$@@$.$>.@#+.>$@.$.$>$",
">.$@#+>..$.>.$..$..@#+>.$.>$...$.>$@#+$...$$.$..$.$@#+.=@$.@$.$.$-@*;*#**##**#**$-$%;&%---%-%--$#*$*;&%---%-*-;*$@;@#+.--.;**#@@$.$@#+$@*=.@>$.>$.$@#+$.@=.@@$..",
"$.>@#+$.$>$.$>$.>$>@#+$.$.$@$.$>$..@#+.$>$..$.$>.$>@#+$..$.$.>$.=*;%=%*;*;*@=@$#-%&%=%-$%&$-&%-%;*;%=*-$%&*;*%-*.;@@#+$#%;@@;*#@.$>@#+.;@@;$..$..$>@#+.$.$.$..$>",
"$.$@#+$@$..$..$.$.$@#+$>..$.>$..$>$@#+.$>$>.$>.$..$@#+.$.$>.$..$.$%%=@@***$@****-$%%=&%--%-%$-$-$.@*=&*-**;.@-*;.$.@#+*@.$@$@#;;..$@#+$.$.@.$.>$.$.@#+>.$.>$>$.$",
".$.@#+...$>.$>.$>.$@#+.$.$.$..$..$.@#+$..$.$.$.>$>.@#+.$>.$.$.$..$*==@;%%**#*@#@%%%==%$%%$%-%%%%.=.*=%$%%$%;*;.$>@$@#+*;#*#***.$.$.@#+..$.=.$.$.>$.@#+$..$..$..$",
"****#@**************#@**************#@**************#@**************%%%%%%**;***%%%=%%%%%%%=%%%%*;#*%%%%%%%=%****##*#@*****##*******#@**************#@**********"};
