/* XPM */
static const char * edithero_xpm[] = {
"16 16 12 1",
" 	c None",
".	c #C05800",
"+	c #585858",
"@	c #808000",
"#	c #404000",
"$	c #808080",
"%	c #00FF00",
"&	c #00C000",
"*	c #008000",
"=	c #004000",
"-	c #000000",
";	c #303030",
".+.+.+@.+++#+.$+",
"$$@$$+$@$.+#+@$+",
"+.+$.$+.+$#+.+$.",
"$$+$+$$@%&&**$+$",
"+@.$.+$+%****$.$",
"$+$+@$.%***=@+$.",
"+.+@*&&******$++",
"++++%**&***&***=",
".+++%**&&***&***",
"@$.+*&&****-*==$",
"$+++#.$%***&+$.+",
".$.+;**&*****$$.",
"$+@%*****&***+$+",
"$.+&*=;==%***$.$",
"+++##+.++%***+++",
"+++#+++++*&***++"};
