/* XPM */
static const char * editenemy_xpm[] = {
"16 16 12 1",
" 	c None",
".	c #C05800",
"+	c #585858",
"@	c #808000",
"#	c #404000",
"$	c #808080",
"%	c #00FFFF",
"&	c #008080",
"*	c #0000FF",
"=	c #000080",
"-	c #000000",
";	c #303030",
".+.+.+@.+++#+.$+",
"$$@$$+$@$.+#+@$+",
"+.+$.$+.+$#+.+$.",
"$$+$+$$@%&&**$+$",
"+@.$.+$+%****$.$",
"$+$+@$.%***=@+$.",
"+.+@&&&******$++",
"++++%**&***&**&=",
".+++%**&&**&&***",
"@$.+&&&****-&==$",
"$+++#.$%***&+$.+",
".$.+;&&&*****$$.",
"$+@%*****&***+$+",
"$.+&*====%***$.$",
"+++##+.++%***+++",
"+++#+++++&&***++"};
