/* XPM */
static const char * hgbrick_xpm[] = {
"16 16 7 1",
" 	c None",
".	c #C05800",
"+	c #585858",
"@	c #808000",
"#	c #404000",
"$	c #808080",
"%	c #303030",
".+.+.+@.+++#+.$+",
"$$@$$+$@$.+#+@$+",
"+.+$.$+.+$#+.+$.",
"$$+$+$$@$.+#+$+$",
"+@.$.+$+$++#.$.$",
"$+$+@$.@+.+#@+$.",
"+.+@++++$+##+$++",
"++++#++++++#++++",
".+++#.+.+.+.+@.+",
"@$.+#+$$@$$$$+@$",
"$+++#.$+.+@.+$.+",
".$.+%@+$$$+$+$$.",
"$+@+#+$.+@.$@+$+",
"$.++#@+$$+$+.$.$",
"+++##+.++.+$++++",
"+++#+++++++#++++"};
