/* XPM */
static const char * ladder_xpm[] = {
"16 16 13 1",
" 	c None",
".	c #FFA858",
"+	c #C05800",
"@	c #303030",
"#	c #400000",
"$	c #585858",
"%	c #808080",
"&	c #808000",
"*	c #404000",
"=	c #FF8000",
"-	c #A0A0A0",
";	c #C0C000",
">	c #800000",
".++@@@@@@@@#@+++",
".$+%%$%&%+$*$.$+",
".++%+%$+$%*$+.+$",
"=$=&=&=&=&=&+-++",
";+$>@@@@@@@*@=$+",
".++$&%+&$+$*&.++",
";+$&$$$$%$**$.$+",
"-+=&=&=&=&=&+.++",
".+$>@@@@@>*@@+$+",
"-++$*$%%&%%%%.++",
";+$$*+%$+$&+$.$+",
".++=&=&=&=&=&.$+",
";+$@@@@@@@@@>&++",
".++$*&$%%$%$+.$+",
";++**$+$$+$%$.++",
"-+%=&=&=&=&=&+$+"};
