/* XPM */
static char * mini_kgoldrunner_xpm[] = {
"16 16 73 1",
" 	c None",
".	c #008000",
"+	c #007F00",
"@	c #005900",
"#	c #003A00",
"$	c #00A600",
"%	c #007E00",
"&	c #008700",
"*	c #00AF00",
"=	c #006F00",
"-	c #008D00",
";	c #008400",
">	c #008100",
",	c #005D00",
"'	c #00A700",
")	c #00D700",
"!	c #003800",
"~	c #00BC00",
"{	c #009500",
"]	c #008600",
"^	c #00B000",
"/	c #009800",
"(	c #047C00",
"_	c #154D00",
":	c #008900",
"<	c #009000",
"[	c #004000",
"}	c #90985F",
"|	c #CBBB0F",
"1	c #C0C000",
"2	c #A3A300",
"3	c #717100",
"4	c #00B300",
"5	c #004D00",
"6	c #004900",
"7	c #00A300",
"8	c #7C9E15",
"9	c #B9AF39",
"0	c #E3CF5F",
"a	c #FCC682",
"b	c #E2C349",
"c	c #F8A653",
"d	c #C79631",
"e	c #006C00",
"f	c #005700",
"g	c #00A800",
"h	c #006D00",
"i	c #789611",
"j	c #D1C72F",
"k	c #E9D26E",
"l	c #FDDBA3",
"m	c #D6CA3D",
"n	c #FA9A39",
"o	c #D39A39",
"p	c #007300",
"q	c #007700",
"r	c #003C00",
"s	c #D6C386",
"t	c #DBCA47",
"u	c #FBA952",
"v	c #BEBD0A",
"w	c #F2A74C",
"x	c #C6942D",
"y	c #DB7100",
"z	c #737201",
"A	c #CA8303",
"B	c #CAB500",
"C	c #F6820C",
"D	c #898000",
"E	c #C05B00",
"F	c #3A3028",
"G	c #313030",
"H	c #653003",
"                ",
"                ",
"                ",
"       .++      ",
"   @@#$%        ",
" &*=-;+> ,'=    ",
" ).!~{+]^/(_    ",
"    :+<%[}|1123 ",
"   4+567.890abcd",
"  e.f  ghijklmno",
" p'q   rstuvwxy ",
"        zABCDE  ",
"          FGH   ",
"                ",
"                ",
"                "};
