/* XPM */
static const char * nugget_xpm[] = {
"16 16 14 1",
" 	c None",
".	c #C05800",
"+	c #585858",
"@	c #808000",
"#	c #404000",
"$	c #808080",
"%	c #303030",
"&	c #C0C000",
"*	c #FFFF00",
"=	c #FFDCA8",
"-	c #FF8000",
";	c #FFA858",
">	c #400000",
",	c #A0A0A0",
".+.+.+@.+++#+.$+",
"$$@$$+$@$.+#+@$+",
"+.+$.$+.+$#+.+$.",
"$$+$+$$@$.+#+$+$",
"+@.$.+$+$++#.$.$",
"$+$+@$.@+%+#@+$.",
"+.+@++@@@%%%+$++",
"+++@&**=&-@+%+++",
".%+*&=&;&&;@@#.+",
"@%&**;&-;&;&&-@$",
"$>*=&&;&=&*&;,.+",
".$**&;&=&=;&;@%.",
"$+@*=&;&;&-@-+$+",
"$.%;&;&&-,-@.%.$",
"+++%@-&-@@..#+++",
"+++#>++...#>++++"};
