/* XPM */
static char * kgoldrunner_xpm[] = {
"32 32 181 2",
"  	c None",
". 	c #008700",
"+ 	c #008000",
"@ 	c #004D00",
"# 	c #004400",
"$ 	c #002C00",
"% 	c #00F000",
"& 	c #007F00",
"* 	c #005300",
"= 	c #008900",
"- 	c #00BD00",
"; 	c #004E00",
"> 	c #002D00",
", 	c #005900",
"' 	c #003A00",
") 	c #006600",
"! 	c #00A600",
"~ 	c #009100",
"{ 	c #007E00",
"] 	c #005D00",
"^ 	c #006700",
"/ 	c #007C00",
"( 	c #009A00",
"_ 	c #007900",
": 	c #00A800",
"< 	c #00AF00",
"[ 	c #00A400",
"} 	c #006F00",
"| 	c #007000",
"1 	c #008D00",
"2 	c #008400",
"3 	c #008100",
"4 	c #009000",
"5 	c #00A700",
"6 	c #00D700",
"7 	c #00B700",
"8 	c #007300",
"9 	c #003800",
"0 	c #003900",
"a 	c #00BC00",
"b 	c #009500",
"c 	c #008600",
"d 	c #00B000",
"e 	c #009800",
"f 	c #007D00",
"g 	c #047C00",
"h 	c #1C8A00",
"i 	c #154D00",
"j 	c #00D100",
"k 	c #00B100",
"l 	c #00E800",
"m 	c #00A500",
"n 	c #008800",
"o 	c #048002",
"p 	c #066C03",
"q 	c #316300",
"r 	c #FBF802",
"s 	c #C0BF00",
"t 	c #F88600",
"u 	c #A68100",
"v 	c #494900",
"w 	c #00FE00",
"x 	c #00B800",
"y 	c #004000",
"z 	c #90985F",
"A 	c #E9D26E",
"B 	c #CBBB0F",
"C 	c #FBA952",
"D 	c #C0C000",
"E 	c #A3A300",
"F 	c #808000",
"G 	c #717100",
"H 	c #00D300",
"I 	c #009300",
"J 	c #008200",
"K 	c #007600",
"L 	c #909638",
"M 	c #E0AC70",
"N 	c #B49F72",
"O 	c #FB890C",
"P 	c #F1AD44",
"Q 	c #F5AB4A",
"R 	c #D9B029",
"S 	c #C3B112",
"T 	c #DD9B42",
"U 	c #6C6C00",
"V 	c #009700",
"W 	c #00B300",
"X 	c #004900",
"Y 	c #00A300",
"Z 	c #7C9E15",
"` 	c #CDB430",
" .	c #B9AF39",
"..	c #DBA605",
"+.	c #E3CF5F",
"@.	c #FCC682",
"#.	c #FFC585",
"$.	c #E2C349",
"%.	c #CFB916",
"&.	c #F8A653",
"*.	c #C79631",
"=.	c #006C00",
"-.	c #00D600",
";.	c #005700",
">.	c #00AB00",
",.	c #006D00",
"'.	c #789611",
").	c #D5BD27",
"!.	c #D1C72F",
"~.	c #C2C106",
"{.	c #FDDBA3",
"].	c #EFD57F",
"^.	c #D6CA3D",
"/.	c #CFB60E",
"(.	c #FA9A39",
"_.	c #D39A39",
":.	c #005800",
"<.	c #009900",
"[.	c #00DB00",
"}.	c #007400",
"|.	c #255F18",
"1.	c #9D8935",
"2.	c #F7B964",
"3.	c #F5CE81",
"4.	c #CABC0E",
"5.	c #C0C001",
"6.	c #FAD18E",
"7.	c #DAC239",
"8.	c #C1B808",
"9.	c #C7A700",
"0.	c #EE7D00",
"a.	c #696900",
"b.	c #007700",
"c.	c #003B00",
"d.	c #007100",
"e.	c #003C00",
"f.	c #104605",
"g.	c #D6C386",
"h.	c #DBCA47",
"i.	c #D6B71F",
"j.	c #F7AA4D",
"k.	c #BEBD0A",
"l.	c #F2A74C",
"m.	c #FCA552",
"n.	c #C6942D",
"o.	c #9D8000",
"p.	c #DB7100",
"q.	c #00B500",
"r.	c #FDA657",
"s.	c #C9BB0D",
"t.	c #E3B231",
"u.	c #E9B039",
"v.	c #BEBD09",
"w.	c #A09F9D",
"x.	c #82820C",
"y.	c #D87F00",
"z.	c #C67F00",
"A.	c #807F00",
"B.	c #707000",
"C.	c #737201",
"D.	c #CA8303",
"E.	c #E99704",
"F.	c #CAB500",
"G.	c #F98400",
"H.	c #F6820C",
"I.	c #898000",
"J.	c #B06600",
"K.	c #C05B00",
"L.	c #8E4600",
"M.	c #553F00",
"N.	c #785F15",
"O.	c #877332",
"P.	c #CE6403",
"Q.	c #8A643D",
"R.	c #AA6404",
"S.	c #5C3000",
"T.	c #272710",
"U.	c #3A3028",
"V.	c #663003",
"W.	c #313030",
"X.	c #653003",
"                                                                ",
"                                                                ",
"                                                                ",
"                                                                ",
"                                                                ",
"                                                                ",
"                                                                ",
"                            . + + @ # $                         ",
"                            % + + & & *                         ",
"                          = - + + ; # >                         ",
"                , , , ' ) ! ~ { *                               ",
"              ] + + & ^ / ( & & _                               ",
"        . : < [ } | 1 2 & & & 3 <   ] 4 5 { }                   ",
"        6 7 + 8 9 0 a b & & + c + d e f g h i                   ",
"        j k / )     l m & + n a { { o p q r s t u v             ",
"                  w = & & 4 x { y y z A B C D D D E F G         ",
"                H I 3 & & J n & K K L M N O s P Q R S T U U     ",
"              V W + & @   X 2 Y + + Z `  ...+.@.#.$.%.&.*.*.    ",
"            =.-.+ & ;.      >.: + ,.'.).!.~.A {.].^./.(._._.    ",
"          :.<.>.& 8         [.}.}.|.1.2.3.4.5.6.7.8.9.0.a.a.    ",
"        8 m 5 & b.c.        d.e.f.g.h.i.C j.k.l.m.n.o.p.        ",
"        -.q.& 8 c.              r.s.t.u.s v.w.x.y.z.A.B.        ",
"                                  C.D.E.F.G.H.I.J.K.L.          ",
"                                    M.N.O.P.Q.R.S.              ",
"                                      T.U.V.W.X.                ",
"                                                                ",
"                                                                ",
"                                                                ",
"                                                                ",
"                                                                ",
"                                                                ",
"                                                                "};
